<?xml version="1.0" standalone="no"?>
<!DOCTYPE svg PUBLIC "-//W3C//DTD SVG 20010904//EN"
 "http://www.w3.org/TR/2001/REC-SVG-20010904/DTD/svg10.dtd">
<svg version="1.0" xmlns="http://www.w3.org/2000/svg"
 width="216.000000pt" height="216.000000pt" viewBox="0 0 216.000000 216.000000"
 preserveAspectRatio="xMidYMid meet">

<g transform="translate(0.000000,216.000000) scale(0.100000,-0.100000)"
fill="#000000" stroke="none">
<path d="M926 2150 c-153 -24 -329 -94 -455 -180 -83 -55 -190 -158 -252 -239
-70 -92 -154 -267 -186 -386 -23 -89 -26 -118 -26 -265 0 -147 3 -176 26 -265
32 -119 116 -294 186 -386 62 -81 169 -184 252 -239 90 -62 235 -127 346 -157
87 -23 117 -26 263 -26 146 0 176 3 263 26 111 30 256 95 346 157 83 55 190
158 252 239 70 92 154 267 186 386 23 89 26 118 26 265 0 147 -3 176 -26 265
-32 119 -116 294 -186 386 -198 260 -499 414 -826 424 -71 2 -157 0 -189 -5z
m516 -327 c96 -27 160 -60 220 -112 94 -83 141 -236 118 -384 -37 -242 -213
-380 -523 -407 -62 -5 -125 -10 -140 -10 l-28 0 3 -204 c3 -201 3 -205 27
-230 23 -24 30 -26 118 -26 l93 0 0 -60 0 -60 -382 2 -383 3 0 55 0 55 74 5
c67 5 76 8 95 33 21 28 21 35 21 613 l0 584 -26 26 c-23 22 -38 27 -98 32
l-71 5 0 47 c0 26 3 50 7 54 4 4 186 6 403 4 365 -4 401 -6 472 -25z"/>
<path d="M1090 1379 l0 -342 83 5 c125 7 184 44 228 143 34 75 40 276 11 372
-36 117 -104 163 -242 163 l-80 0 0 -341z"/>
</g>
</svg>
